<?xml version="1.0" encoding="UTF-8"?>
<svg id="Layer_1" xmlns="http://www.w3.org/2000/svg" viewBox="0 0 1920 1080">
  <defs>
    <style>
      .cls-1 {
        fill: #fff;
      }
    </style>
  </defs>
  <path class="cls-1" d="M979.25,614.83c.5-1.97.9-3.95,1.26-5.77,1.47-7.35,4.97-8.38,11.18-6.23,2.01.7,3.92,1.12,5.75,1.32,1.01-1.03,1.93-2.08,2.76-3.14-3.5-.49-7.87-2.05-13.92-4.52,2.29-2.64,4.42-5.1,6.56-7.56-7.98,3-14.94,5.36-15.15,16.65-.08,4.61-1.18,8.93-3.06,12.76,1.28-1.1,2.56-2.21,3.84-3.32.26-.05.52-.13.78-.19Z"/>
  <path class="cls-1" d="M973.68,603.19c.77,0,1.53-4.5,2.71-8.25-8.02,2.1-13.49,3.53-18.97,4.96,5.27,2.4,10.76,3.3,16.26,3.29Z"/>
  <path class="cls-1" d="M962.64,630.86s-.03-.04-.05-.06c-.49.26-.99.51-1.5.73-.84,5.6-1.46,10.81-2.15,15.78,4.86-6.09,6.55-12.52,3.7-16.45Z"/>
  <path class="cls-1" d="M492.69,525.98c-9.17,4.48-17.09,8.35-26.53,12.96,23.02,2.47,24.85,1.62,26.53-12.96Z"/>
  <path class="cls-1" d="M808.41,788.52c-12.26,13.29-24.52,26.59-36.78,39.88,1.24,1.12,2.49,2.24,3.73,3.36,11.69-13.84,23.39-27.67,35.08-41.51-.68-.58-1.35-1.15-2.03-1.73Z"/>
  <path class="cls-1" d="M1051.18,604.06c-7.5,5.69-15.5,11.13-21.56,18.18-5.2,6.03-7.69,14.06,3.35,20.83,8.18-11.67,16.52-23.57,25.97-37.05-3.72-1.02-6.71-2.76-7.76-1.96Z"/>
  <path class="cls-1" d="M1055.59,581.74c2.95.73,5.94,1.28,8.06,1.73-1.2,5.31-2.11,9.33-3.02,13.36,4.13-2.22,8.25-4.44,12.41-6.68-1.41,3.3-3.09,7.22-4.77,11.14.67.51,1.34,1.02,2.01,1.53,1.86-2.41,3.78-4.78,5.58-7.24,1.98-2.71,3.86-5.49,5.77-8.24-2.24-1.86-4.48-3.72-7.84-6.51,9.8-11.62,3.29-22.16-2.5-32.83-.39.47-.77.94-1.13,1.42.78,2.4,1.67,4.73,2.92,6.86,4.17,7.13,2.78,13.36-1.2,19.36-1.26,1.89-4.57,3.35-6.96,3.39-6.2.1-12.51-1.42-18.6-.88-.82.74-1.63,1.48-2.45,2.22-2.3-.11-4.46-.06-6.43.13-2.35,1.03-4.56,2.35-6.4,3.9-1.46,1.23-2.81,2.18-4.15,2.8.17.72.56,1.46,1.15,2.18,7.81-5.7,16.38-10.42,27.55-7.65Z"/>
  <path class="cls-1" d="M829.63,761.38c.72.87,1.47,1.77,2.19,2.64,1.79-1.33,3.71-2.76,5.71-4.25,0,0,0,0,0,0l-7.9,1.62Z"/>
  <path class="cls-1" d="M881.99,705.68c3.25-5.92,6.54-11.9,9.89-17.98.26.51.52,1.01.78,1.51,2.97-2.57,5.98-5.17,8.97-7.76-2.14.88-4.28,1.77-6.5,2.2-4.26.84-8.65.98-12.42,1.36,1.45,7.37-.03,13.44-2.99,18.91.72.82,1.48,1.42,2.27,1.76Z"/>
  <path class="cls-1" d="M1231.04,414.44c.47-8.03,2.76-14.26,12.64-15.83,4.33-.69,7.98-5.64,11.94-8.65-.42-.16-.84-.33-1.26-.49-5.81,2.59-11.83,4.79-17.34,7.92-3.12,1.77-7.39,4.85-7.68,7.7-.96,9.5-.37,19.17-.37,28.77,1.98-6.45,1.68-12.95,2.06-19.41Z"/>
  <path class="cls-1" d="M902.95,705.38c-.46.4-.92.8-1.38,1.2,1.05,2.05,2.08,4.06,3.11,6.05-.6-2.41-1.13-4.84-1.73-7.25Z"/>
  <path class="cls-1" d="M1019.37,830.06c12.72-5.95,7.65-18.62,10.49-28.25,1.16-3.94-.75-9.21,1.17-12.41,7.92-13.18-2.79-20.2-8.21-31.2,0,5.55.66,8.98-.11,12.05-5.24,20.97-17.02,38.39-30.9,54.44-13.39,15.49-13.61,15.3-31.42,5.22-.34-.19-1.05.25-2.26.58,4.95,3.81,9.58,7.36,15.16,11.65-24.81,18.59-51.23,31.5-80.93,36.88-4.97-30.16,4.68-51.91,32.64-64.67-4.31.13-7.3,1.3-10.34,2.28-9.25,3.01-14.24-.54-14.24-10.03,0-15.4,0-30.8,0-43.3-15.33-3.26-27.46-5.85-41.35-8.8.44,3.36.3,9.39,1.41,9.63,8.49,1.83,6.14,8.23,6.08,13.24-.08,7.65-.98,15.29-1.52,22.93h-.03s-.01,0-.02,0c5.51,18.72.03,36.34-6.28,53.89,2.81.29,4.71.49,3.91.4-3.73,4.47-7.76,9.37-11.88,14.18-2.42,2.83-5,5.52-7.5,8.27-.73-.62-1.46-1.23-2.19-1.85,2.07-4.01,4.24-7.96,6.17-12.03,1.79-3.79,3.32-7.7,4.96-11.56-1.2-.49-2.4-.98-3.6-1.47-3.32,8.57-6.64,17.15-10.24,26.46-25.73-5.18-44.46-20.43-60.19-40.38,5.95-6.05,11.39-11.32,16.53-16.87,18.08-19.49,36.12-39.01,53.96-58.72,1.75-1.94,1.97-5.27,2.9-7.95l-2.78-1.31c-3.18,2.37-6.36,4.74-9.39,7,.01.05.02.1.03.15-.76.53-1.4.95-1.89,1.23-2,1.49-3.92,2.92-5.71,4.25-.72-.87-1.47-1.77-2.19-2.64l-27.38,5.6c4.09-3.49,8.26-7.06,12.5-10.68,3.89-5.86,7.82-11.8,12.26-18.49-11.92-4.16-21.49-7.49-31.06-10.83.13-1,.27-2,.4-2.99l61.48-28.27c.49.79.98,1.59,1.47,2.38-7.29,6.87-14.58,13.73-22.59,21.28,4.63,2.49,8.8,4.74,12.92,6.96,9.33-8.04,18.86-16.26,28.55-24.62.48.86,1,1.59,1.54,2.21,2.96-5.47,4.44-11.54,2.99-18.91,3.77-.38,8.16-.52,12.42-1.36,2.23-.44,4.36-1.32,6.5-2.2,2.35-2.03,4.68-4.05,7.04-6.09,1.42-5.51,2.84-11.01,4.26-16.52-.97-.46-1.94-.92-2.91-1.37-3.68,3.13-7.36,6.25-12.5,10.62v-37.01c-.57.04-1.14.08-1.7.11,1.81-2.97,3.62-5.95,5.43-8.92-.5-.32-1.01-.64-1.51-.97-3.89,3.67-7.75,7.39-11.68,11.01-16.87,15.52-33.52,31.31-50.87,46.28-3.61,3.11-9.85,3.19-14.89,4.64-4.55,1.31-9.1,2.59-13.66,3.88.31,1.4.62,2.81.93,4.21,16.09-3.44,32.18-6.89,48.27-10.33.75.47,1.51.93,2.26,1.4-2.22,2.96-3.81,7.17-6.77,8.67-19.33,9.79-38.85,19.21-58.58,28.15-3.25,1.47-8.56,1.27-11.68-.43-7.72-4.21-14.73-9.74-23.58-15.8,14.44-3.65,27.29-6.9,40.15-10.15-.2-.91-.39-1.81-.59-2.72-17.15-2.34-33.13,14.33-52,3.59,1.52,7.72,4.6,14.98,3.92,21.88-1.03,10.37-1.01,18.61,11.93,22.89-5.65,2.49-11.3,4.98-19.07,8.4.83-8.98,1.76-15.71,1.98-22.47.18-5.74.35-11.7-.92-17.22-2.17-9.4-5.9-18.45-8.05-27.86-.61-2.66,1.87-6.08,3.09-9.09,1.34-3.3,2.87-6.53,2.99-10.71-3.52,4.59-7.04,9.18-12.19,15.9-9.63-12.14-18.85-23.73-28.01-35.38-.58-.74-1.09-1.87-.99-2.75,1.88-16.9,2.89-34.01,6.43-50.56,1.03-4.81,9.39-8.06,14.23-11.9.88-7.4,1.44-16.29,3.31-24.89.43-1.97,5.19-3.66,8.21-4.29,8.11-1.7,16.35-2.75,24.54-4.06,4.61-3.24,9.21-6.47,13.82-9.71,3.78-4.43,7.57-8.87,11.35-13.3-.05.06-.12.13-.12.13,1.02-5.47.87-11.56,3.33-16.28,4.24-8.13,2.53-14.8-1.27-22.27-5.57-10.94-10.33-22.29-15.29-33.14,9.95-5.13,18.48-10.58,27.75-14.06,14.61-5.48,29.71-9.62,44.61-14.34,16.14-5.11,30.63-12.38,37.97-29l.24.12s-.24-.12-.26-.14c.02,0,.05,0,.07,0-12.08-9.38-26.72-5.52-40.85-6.68,4.18-18.27,8.11-35.47,12.04-52.67-7.05,15.05-12.36,30.51-18.41,45.68-1.18,2.95-4.91,5.9-8.06,6.83-6.53,1.93-13.43,2.88-20.24,3.52-5.84.55-11.78.11-18.33.11-5.08,2.32-11.76,5.36-18.2,8.3-2.24-3.3-3.72-5.48-6.49-9.58-.29,5.44-.45,8.44-.6,11.18-.88.32-1.18.45-1.49.55-31.86,9.98-58.6,26.42-73.95,57.66-1.01,2.05-4.24,3.55-6.74,4.24-21.88,6.12-43.84,11.95-65.74,17.99-6.99,1.93-13.89,4.21-20.83,6.33-.56-1.18-1.12-2.37-1.67-3.55,10.2-5.47,20.41-10.94,30.61-16.41-.4-.92-.79-1.84-1.19-2.76-8.66,3.13-17.32,6.27-25.98,9.4,6.31-7.73,13.51-14.2,20.72-20.66,5.28-4.73,6.15-14.63.97-19.52-1.41-1.34-6.24-1.26-7.75.11-5.08,4.6-9.37,10.07-13.96,15.2-2.27,3.39-4.53,6.77-6.8,10.15-4.48,6.14-4.69,12.25-1.75,19.45,3.71,9.1,6.4,18.4,1.39,28.55-5.49,11.12-.87,23.35,8.29,31.19,7.53,6.44,15.42,13.65,19.79,22.22,3.57,7.01,7.95,9.54,14.41,11.51,3.5,1.07,8.67,2.48,9.62,5.03,3.57,9.62,10.64,10.24,21.81,9.86-19.78-30.02-38.52-58.45-58.28-88.44,12.31-4.12,22.68-7.6,33.75-11.3.3,18.66,8.7,31.66,23.18,40.1,15.17,8.84,30.95,4.2,47.16-1.81-6.09,26.24-17.3,48.56-31.63,68.76,2.79,5.6,5.22,10.48,8.22,16.51,8.99-17.13,17.36-33.55,26.21-49.71,3.07-5.6,7.34-10.54,11.06-15.78-9.47,19.17-16.23,39.41-28.44,56.87,3.69-3.87,7.37-7.73,12.09-12.68-1.84,30.16-13.87,58.33-3.53,87.3.32.89.27,1.99.12,2.95-2.16,13.98,6.89,21.43,16.54,28.58.36.27.33,1.08.56,1.98-2.09,1.01-4.23,2.05-5.4,2.61,5.39,1.6,11.51,2.48,16.69,5.17,8.42,4.37,11.48,11.38,11.96,21.62.48,10.08-3.08,14.16-11.23,17.32-8.88,3.44-17.55,7.46-26.3,11.22-21.41,9.21-42.83,18.43-64.24,27.65.43,1.04.85,2.09,1.28,3.13,32.96-13.45,65.91-26.89,99.35-40.54.94,13.02,2.07,25.74,2.59,38.49.1,2.34-1.7,5.42-3.58,7.08-14.81,13.05-29.7,26.02-44.85,38.68-35.81,29.92-71.89,59.51-107.59,89.55-11.08,9.32-21.29,19.67-31.9,29.55.33.32.67.64,1,.95,64.29-50.52,128.57-101.04,193.1-151.75,4.15,6.85,7.71,12.72,10.95,18.08-24.71,30.16-48.98,59.79-73.25,89.41.64.57,1.29,1.14,1.93,1.71,25.45-27.23,50.91-54.45,76.36-81.68,1.04.9,2.09,1.8,3.13,2.71-10.31,11.81-20.61,23.63-30.92,35.44,1.34,1.28,2.67,2.57,4.01,3.85,9.77-11.66,19.55-23.31,29.6-35.31,6.99,7.71,12.5,13.77,17.78,19.6-1.71,3.96-3.12,7.23-4.53,10.49l1.57.69c1.77-2.71,3.54-5.43,5.52-8.46,4.93,3.25,9.6,6.96,14.81,9.62,13.16,6.73,26.1,16.98,39.96,18.56,24.6,2.8,50.19,2.77,74.64-.9,19.66-2.95,38.92-11.64,57.13-20.34,17.85-8.53,36.89-17.51,41.55-40.35ZM774.21,519.24c-19.15,6.25-17.5.97-27.9-9.93-1.09-1.14-1.64-3.69-1.21-5.24,2.42-8.77,5.22-17.43,8.76-28.97,7.45,16.15,13.89,30.12,20.36,44.15ZM751.46,412.37c34.93-9.5,68.46-11.06,102.67-6.38-11.73,4.03-23.36,8.34-35.2,12.03-16.54,5.15-33.72,8.65-49.62,15.28-6.86,2.86-11.78,11.38-16.46,18.1-2.64,3.79-3.02,9.16-6.73,13.26,1.88-6.76,1.77-15.41,6.04-19.91,10.71-11.29,9.05-21.25-.7-32.36ZM745.61,415.21c-5.87,6.69-10.71,12.21-15.55,17.73,9.37,3.72,9.95,6.03,5.59,22.52v-17.14c-15.87,6.28-30.57,12.11-45.78,18.13,7.21-19.73,30.57-37.29,55.73-41.24ZM719.08,493.09c-4.4,10.85-8.14,20.84-20.77,26.19-24.44,10.34-53.39-4.76-56.28-31.22-.27-2.5,2.37-7.04,4.61-7.8,11.45-3.84,23.22-6.75,36.3-10.38v18.22c.63.09,1.25.19,1.88.28.57-1.34,1.78-2.77,1.61-4.02-1.69-12.23,4.36-15.88,15.74-17.75,11.46-1.88,22.34-7.26,33.48-11.1-5.55,12.52-11.42,24.9-16.56,37.58ZM746.65,772.65c-2.39-21.11,1.29-26.57,22.4-30.61,4.33-.83,9.44,1.48,13.99,2.96,4.65,1.51,9.07,3.76,15.68,6.58-16.46,13.47-32.17,26.33-49.5,40.52-1.05-7.9-1.91-13.66-2.56-19.45ZM764.53,821.29c-4.33-6.68-7.48-11.54-11.18-17.26,16.26-9.7,31.88-19.01,47.49-28.31.47.34.95.68,1.42,1.01-12.12,14.32-24.24,28.63-37.72,44.56ZM771.62,828.4c12.26-13.29,24.52-26.59,36.78-39.88.68.58,1.35,1.15,2.03,1.73-11.69,13.84-23.39,27.67-35.08,41.51-1.24-1.12-2.49-2.24-3.73-3.36ZM887.29,879.51h-36.67c-.29-.8-.59-1.6-.88-2.4,12.14-11.14,24.28-22.28,37.56-34.46v36.86Z"/>
  <path class="cls-1" d="M831.08,743.89s.04,0,.06,0c-.01,0-.03,0-.04-.01,0,0-.01.02-.02.02Z"/>
  <path class="cls-1" d="M844.14,750.74c-.25-.82-.5-1.63-.75-2.45-.8-.29-1.59-.57-2.39-.86-.96,1.72-1.6,3.59-1.86,5.58,1.66-.75,3.33-1.51,5-2.27Z"/>
  <path class="cls-1" d="M606.3,424.73q-6.17-7.13-15.79-1.68c-.99-1.66-1.96-3.27-4.24-7.09.66,15.97-9.94,19.44-18.64,24.91-3.38-4.32-6.28-8.02-9.89-12.64-.57,7.7,9.39,13.5.59,19.85-7.94,5.73-15.98,11.33-25.18,17.84-3.96-7.45-6.35-14.59-10.92-19.84-5.28-6.09-11.79-12.18-19.05-15.13-5.57-2.27-13.12.31-20.72.79,9.9,3.13,10.59,10.75,10.48,18.98-.17,11.88-1.14,23.91.27,35.63,1.93,15.98-2.87,24.83-18.13,32.82-29.74,15.57-59.48,24.89-93.51,20.75-14.67-1.79-30.05.45-44.91,2.36-24.97,3.21-49.72,8.1-74.68,11.37-17.62,2.31-35.53,2.48-53.16,4.76-30.24,3.9-60.34,8.83-90.53,13.06-15.73,2.2-31.54,3.84-45.05,5.47,17.03,0,36.17,1.03,55.15-.26,23.86-1.61,47.58-5.23,71.38-7.74,7.11-.75,14.34-.4,21.47-1.08,13.64-1.3,27.22-3.31,40.87-4.42,29.42-2.38,59.06-.78,88.11-9.13,13.22-3.8,27.96-2.3,42.01-3.2.06.92.12,1.84.18,2.76-31.57,13.17-63.15,26.35-96.08,40.08,2.52,1.35,3.1,1.92,3.45,1.81,33.42-10.79,66.94-21.31,100.19-32.59,17.73-6.02,34.46-15.73,53.89-14.98,13.94.54,27.83,2.54,41.76,3.51,11.59.81,23.21,1.08,34.82,1.53.96.04,2.04-.14,2.88-.57,14.05-7.32,29.58-6.92,44.61-7.21,4.5-.09,10.22,6.09,13.3,10.77,1.66,2.52-.08,8.53-2.07,11.92-2.94,5.03-7.47,9.13-11.32,13.63.44.37.88.74,1.31,1.1,11.46-7.46,22.92-14.93,34.75-22.63-12.11-15.1-24.08-30.01-35.94-44.8-1.98,1.53-5.74,4.44-9.37,7.24,3.61,5.21,7.23,10.41,11.35,16.35-7.39.85-12.93,1.84-18.49,2.03-5.92.2-11.86-.28-17.79-.58-7.09-.36-9.05-3.94-6.41-10.78,2.67.62,5.11,1.19,8.77,2.04-2.49-3.27-4.18-5.48-6.29-8.25,2.66-1.27,5.62-3.6,6.52-2.97,8.97,6.2,15.2-2.66,22.68-3.96,7.09-1.23,19.45-18.46,18.06-25.18-1.96-9.44-5.57-18.54-8.67-28.41,2.48-2.1,5.93-5,9.37-7.91,2.27-3.38,4.53-6.77,6.8-10.15,3.94-6.72,7.88-13.44,11.82-20.16Z"/>
  <path class="cls-1" d="M1253.23,545.02c-.11-.07-.21-.15-.32-.22,0,.01-.01.02-.02.04.03.01.34.19.34.19Z"/>
  <path class="cls-1" d="M1162.36,471.18c5.68.41,9.46-2.58,15.15-9.82,1.82-2.32,4.03-4.33,5.97-6.55,8.35-9.55,16.67-19.13,25-28.69-.85-1.06-1.69-2.12-2.54-3.18-10.74,7.06-21.49,14.12-34.41,22.62,8.63-13.46,15.68-24.46,22.72-35.45q16.27,10.26,20.1,1.58c-3.5-3.86-7.06-7.8-10.61-11.73l1.41-1.8c5.87,3.65,11.73,7.3,18.17,11.3-15.99,20.62-31.58,40.72-46.7,60.23,4.75,5.54,8.99,10.99,13.77,15.93,7.44,7.7,7.02,16.11,3.3,25.08.04-.01.07-.02.11-.03,0,0-.2.26-.23.29,0-.03,0-.06-.01-.08-2.43,2.06-4.85,5.51-7.31,5.53-5.94.06-6.92,2.6-7.38,7.72-.86,9.6-3.7,18.48-12.32,24.45-4.16,2.88-7.9,6.38-14.15,11.5,5.89.38,9.14.58,13.06.83-2.52,2.14-4.68,3.97-6.62,5.62,2.27,4.91,4.4,9.54,7,15.16,11.76-6.1,22.32-13.27,29.15-24.22,5.62-9.02,9.41-19.17,14.01-28.83,0,0,0-.02,0-.03,5.72-.79,12.57-3.88,16.96-1.79,9.65,4.6,18.07,11.8,26.97,17.99,1.1-2.2,3.06-4.35,3.17-6.59.38-8.44.15-16.91.15-25.6,2.93.85,4.9,1.41,4.79,1.38-2.58-8.58-5.21-17.32-7.85-26.06,1.24-.7,2.47-1.4,3.71-2.09,5.32,5.72,10.35,11.73,16.02,17.08,8.75,8.24,16.49,18.39,29.84,19.42,2.95.23,7.67-.46,8.73-2.34,1.94-3.45,3.85-10.26,2.15-11.88-15.4-14.67-25.57-35.73-48.71-41.24-.62-.15-1.05-1.14-2.54-2.87,3.82.85,6.17,1.38,6.96,1.56.65-5.11,1.21-9.44,1.76-13.77-2.25,1.55-4.55,3.14-4.95,3.41-7.46-6.07-14.01-11.4-20.7-16.84,11.41-12.05,21.42-22.99,31.92-33.43,2.55-2.53,6.68-4.73,10.16-4.86,19.4-.72,38.83-.58,58.24-1.09,14.16-.37,28.3-1.29,42.45-1.97-.02-.6-.04-1.2-.06-1.8-30.86-1.57-61.73-3.13-94.56-4.79,33.39-29.86,64.94-58.07,96.48-86.29-4.38,1.27-8.08,3.42-11.26,6.17-27.13,23.52-54.54,46.74-81.01,70.99-7.79,7.14-15.4,10.13-24.34,8.94.38-3.49.76-6.91,1.14-10.33-6.04.87-12.07,1.74-16.95,2.44.74-2.54,1.91-6.61,3.09-10.68-15.13,12.47-27.56,27.59-50.59,17.87,26.79-31.4,53.48-62.69,80.18-93.98-2.63-.48-3.91.3-4.9,1.36-26.14,27.83-52.29,55.64-78.33,83.55-12.85,13.77-12.74,13.85-28.07,3.51-1.1-.74-2.46-1.1-3.14-1.4,2.05-5.19,3.43-8.68,4.81-12.18-.59-.43-1.18-.87-1.78-1.3-2.57,3.4-5.14,6.79-7.84,10.37-18.63-9.32-36.46-18.24-54.29-27.16-.15.38-.31.75-.46,1.13,23.21,15.67,46.42,31.35,70.38,47.53-10.23,11.72-20.54,20.28-26.44,31.22-5.66,10.49-6.74,23.44-9.83,35.31.5.22.99.43,1.47.63,18.24-14.63,31.69-24.7,38.48-28.46,7.98-4.42-4.16,8.56-28.08,31.5ZM1264.38,404.25c-.82-8.91,7.41-1.22,11.5-2.5-11.13,10.38-22.26,20.76-34.5,32.19-2.49-2.85-4.75-5.45-7.67-8.8,6.71-7.37,12.71-14.8,19.72-21.11,1.88-1.69,6.83.03,10.95.21ZM1229.35,405.08c.29-2.84,4.55-5.92,7.68-7.7,5.5-3.13,11.53-5.33,17.34-7.92.42.16.84.33,1.26.49-3.96,3.01-7.61,7.96-11.94,8.65-9.88,1.57-12.16,7.8-12.64,15.83-.38,6.46-.08,12.96-2.06,19.41,0-9.6-.6-19.26.37-28.77ZM1224.71,454.23c1.48.42,2.56,4.8,2.58,7.39.1,11.21-.31,22.42-.39,33.63-.01,1.75.76,3.5,3.21,5.7,2.36-5.39,4.72-10.77,7.68-17.51-2.01,21.7-4.52,24.06-21.37,21.18,5.6,4.38,14.19,6.5,11.06,15.73-6.42,2.85-12.44,5.51-18.5,8.19-1.31-11.18-2.01-22.47-4.14-33.49-1.47-7.62-4.92-14.85-7.98-23.71,5.33-4.88,11.26-11,17.96-16.09,2.34-1.78,6.86-1.89,9.89-1.04Z"/>
  <path class="cls-1" d="M1037.44,580.51c-5.98.58-10.15,2.49-10.62,5.34-.07.45-.04.9.07,1.36,1.34-.63,2.69-1.58,4.15-2.8,1.83-1.55,4.05-2.86,6.4-3.9Z"/>
  <path class="cls-1" d="M1064.92,579.04c2.4-.04,5.71-1.5,6.96-3.39,3.98-6,5.36-12.23,1.2-19.36-1.24-2.13-2.14-4.46-2.92-6.86-2.92,3.9-4.54,7.88-4.49,11.23-6.36,5.77-12.83,11.63-19.35,17.51,6.09-.54,12.4.98,18.6.88Z"/>
  <path class="cls-1" d="M1123.32,515.7c-.08.05-.17.09-.25.14-.03.06-.06.13-.09.19,0,0,.34-.33.34-.33Z"/>
  <path class="cls-1" d="M1120.13,517.68c.69-.85,1.91-1.27,2.94-1.84.69-1.38,1.21-2.89,2.15-4.05,3.32-4.11,6.52-8.08,7.59-12.75-11.7,10.9-24.64,22.84-38.38,35.41,10.56.31,18.33-7.78,25.7-16.77Z"/>
  <path class="cls-1" d="M1053.02,560.98c1.74-1.74,1.34-5.27-.68-9.49,14.4-12.31,28.23-24.07,41.21-35.02.63.35,1.28.53,1.95.53,2.76,0,5.25-3.11,6.98-8.06,9.98-8.38,19.39-16.23,28.12-23.42-.49-3.85,1.73-7.39,6.17-10.34,4.58-3.05,8.44-8.39,10.65-13.55,4.19-9.77,6.97-20.14,10.33-30.25-9.92-6.09-27.03,1.25-26.25-16.94-2.43,3.86-3.93,9.54-7,10.58-14.67,4.97-29.77,8.68-44.27,12.72.39-4.53.92-10.77,1.45-17-3.04,21.89-14.93,37.64-29.62,49.71-2.31,10.87-5.32,21.07-6.43,31.46-1.09,10.2-.24,20.61-.24,30.27,8.76-2.97,6.9,6.73,10.42,11.65-10.01,8.93-19.57,17.46-29.14,25.99-1.35-.46-2.7-.92-4.04-1.39v-100.34c-1.63-.24-3.27-.47-4.9-.71-4.39,13.12-9.76,26.02-12.78,39.44-1.63,7.25.37,15.14-7.99,19.6-1.35.72-2.57,3.46-2.34,5.04,1.44,9.72-2.16,16.92-10.13,22.24,2.93-1.3,5.86-2.6,9.64-4.28-.76,7.64-1.43,14.41-2.23,22.51,7.16,3.95,14.74,8.02,22.27,12.29,9.64-8.29,19.13-16.44,28.41-24.39,4.64,2.43,8.57,3.02,10.44,1.14ZM1099.62,460.25c10.45-8.59,23.45-13.14,38.44-7.17-21.8,19.97-42.98,39.38-62.51,57.27-2.06-18.22,7.32-36.32,24.07-50.1Z"/>
  <path class="cls-1" d="M1071.29,548.01c5.79,10.67,12.3,21.21,2.5,32.83,3.36,2.79,5.6,4.65,7.84,6.51.09-.13.18-.26.27-.39,0,.05,0,.09,0,.14,2.69-3.02,5.33-5.99,6.77-7.61,12.55,1.87,23.8,3.55,35.05,5.23,1.24.19,2.76-.02,3.68.63,10.53,7.36,19.73,0,29.32-2.62.92-.25,1.87-1.89,2.06-3.01,1.08-6.2-9.12-15.53-15.68-15.57-11.81-.07-23.62-.94-37.94-1.59,3.93-5.68,5.7-8.24,8.91-12.87-8.16-5.07-15.95-9.92-23.15-14.39-3.99,1.03-8.32,3.06-12.45,6.06-2.82,2.04-5.23,4.32-7.2,6.66Z"/>
  <path class="cls-1" d="M1044.03,759.56c-.06.04-.12.07-.17.11-.06.08-.12.16-.19.24l.36-.35Z"/>
  <path class="cls-1" d="M881.99,705.68c.49.21,1,.32,1.51.32,4.13,0,7.64-6.93,8.95-16.62.07-.06.14-.12.2-.18-.26-.5-.51-1-.78-1.51-3.34,6.08-6.63,12.07-9.89,17.98Z"/>
  <path class="cls-1" d="M980.51,609.06c-.36,1.82-.76,3.8-1.26,5.77,4.12-.99,8.65-3.06,12.95-6.19,1.94-1.41,3.69-2.92,5.23-4.49-1.83-.2-3.73-.62-5.75-1.32-6.21-2.15-9.7-1.11-11.18,6.23Z"/>
  <path class="cls-1" d="M1081.63,587.34c-1.92,2.75-3.8,5.53-5.77,8.24-1.8,2.46-3.71,4.83-5.58,7.24-.67-.51-1.34-1.02-2.01-1.53,1.68-3.92,3.36-7.84,4.77-11.14-4.16,2.24-8.29,4.46-12.41,6.68.91-4.02,1.82-8.04,3.02-13.36-2.11-.45-5.11-1-8.06-1.73-11.17-2.78-19.74,1.95-27.55,7.65.71.89,1.69,1.76,2.94,2.6-7.21,6.48-14.45,12.98-21.68,19.46-3.8,1.08-7.9,3.07-11.8,5.9-6.42,4.65-10.81,10.5-12.29,15.6-8.12,7.23-16.14,14.35-24.03,21.33-3.1,15.93-3.44,16.3-21.88,18.29-6.66.72-9.54,3.5-8.4,10.25.75,4.43,1.2,8.9,2.14,16.16,20.21-17.64,38.59-33.7,57.63-50.32,4.47,5.54,8.52,10.56,12.5,15.51-19.55,19.29-82.14,72-103.54,72.61.51-4.21.62-8.37,1.59-12.32.89-3.6,2.69-6.97,4.1-10.45-.09.04-.17.08-.26.13-.13-.5-.26-1-.38-1.5-1.03-2-2.06-4-3.11-6.05-14.51,12.59-27.32,23.57-37.67,32.27-.04-.01-.09-.02-.13-.03-1.64,2.98-3.27,5.95-4.89,8.9,4.65,1.83,10.91,4.9,17.53,6.69,5.07,1.37,11.17,2.78,15.76,1.17,6.01-2.11,10.95-7.24,16.41-10.97,16.24-11.08,33.24-21.19,48.56-33.41,16.32-13.01,31.06-27.99,46.8-42.4-2.45,8.73-5.35,17.05-7.05,25.61-2.17,10.92-3.27,22.04-5.03,33.04-1.34,8.37-3,16.69-4.52,25.03,1.24.23,2.47.46,3.71.7,6.33-25.89,12.66-51.79,18.99-77.68,6.55,12.83,11.2,26.06,15.8,39.32,2.08,5.99,0,9.95-5.68,12.74-4.84,2.38-9.34,5.46-13.98,8.23l.86,1.73c6.75-2.67,13.51-5.34,20.16-7.97,3.83,12.61-4.33,26.33,7.13,36.19,3.74-2.38,6.65-4.23,9.55-6.08,2.12-2.77,4.23-5.52,5.93-7.73,5.9,3.18,10.32,5.57,18.09,9.77,0-12.67-.43-22.44.18-32.13.31-5,2.46-9.88,3.93-15.4-.06,0-2.7-.42-5.34-.83.84-.64,1.68-1.29,2.52-1.93-11.08-21.47-22.15-42.94-33.63-65.18,9-12.57,18.86-26.33,28.72-40.1,1.19.66,2.39,1.33,3.58,1.99-1.54,4.83-3.08,9.65-4.62,14.48.42.21.84.41,1.27.62,2.53-4.19,5.06-8.37,7.51-12.43,13.29,5.13,25.76,9.93,38.23,14.74.34-.85.67-1.7,1.01-2.55-6.71-3.41-13.41-6.85-20.13-10.23q-15.39-7.76-9.25-23.85c.2-.53.07-1.19.05-1.8,0-.05,0-.09,0-.14-.09.13-.18.26-.27.39Z"/>
  <path class="cls-1" d="M1351.63,545.06c-.77,8.36,8.06,10.09,10.84,16.03.78,1.67,5.39,2.72,7.87,2.22,7.49-1.52,14.81-3.94,23.15-6.28-18.13,41.67-47.98,70.7-84.18,94.15,22.67-8.18,42.67-20.26,60.24-36.44,17.32-15.95,34.87-31.63,53.58-48.58-1.95-13.68-.37-15.38,16.1-13.34,7.5.93,14.96,2.2,22.65,3.35-3.67-8.65-6.8-16.06-9.93-23.45,4.48.34,9.28,1.88,13.19.63,6.39-2.05,11.7-2.04,17.64,1.19,7.11,3.87,11.11,1.48,10.15-5.46,3.5,1.9,7.38,4.01,11.26,6.11,1.01-.82,2.01-1.63,3.02-2.45-3.94-13.58-7.89-27.15-11.74-40.42-1.59-2.26-3.92-4.57-5.06-7.36-11.57-28.34-22.47-57.01-46.8-77.73-5.25-4.47-9.67-9.91-14.16-14.58-8.38,8.59-17.35-5.72-26.64-2.86,6.9,5.57,13.92,10.39,19.89,16.27,9.95,9.79,17.71,22.5,14.88,35.96-3.87,18.38-12.03,35.87-18.93,55.39-2.96-7.3-5.1-12.59-7.24-17.87-1.31.1-2.62.19-3.92.29,9.77,15.23,10.06,29.79-.41,43.85-14.04-2.53-28.24-4.94-42.35-7.83-1.64-.34-2.73-3.36-4.08-5.14h.09s-.09,0-.1,0c0,0,0,0,0,0-6.9-.67-15.02-5.81-19.08,5.62.41-3.79,1.93-6.68,2.35-9.72.26-1.92-.59-4.66-1.96-5.93-1.06-.99-4.97-.96-5.41-.17-1.31,2.36-1.98,5.31-2.09,8.06-.27,6.71-.09,13.43-.09,20.15-1.41-.11-2.82-.23-4.23-.34v-16.14c-2.41,3.79-3.58,5.62-4.83,7.6-2.3-1.86-4.25-3.44-7.57-6.12-1.42,5.45-2.53,9.75-3.65,14.04,3.95,1.32,7.91,2.64,11.87,3.96,5.31.9,10.63,1.79,16.89,2.85-.45-4.74-.84-8.87-1.22-13,.45-.06.89-.13,1.34-.19,1.58,6.74,3.16,13.47,4.74,20.21,1.52,1.17,4.05,2.44,3.95,3.46ZM1438.96,514.49c4.7-14.18,9.88-28.21,14.92-42.28,1.21.06,2.43.13,3.64.19.8,5.93,1.59,11.86,2.34,17.49-.4.14,1.29-.45,3.42-1.2,5.37,11.83,10.64,23.44,15.91,35.06-.67,1.1-1.34,2.2-2.01,3.3-12.04-1.96-24.12-3.75-36.08-6.15-1.16-.23-2.75-4.61-2.15-6.4ZM1404.75,531.4c4.07,1.04,9.28,2.13,12.67.5,11.64-5.59,22.58-4.12,33.73.61-2.95.17-5.92.59-8.82.27-8.8-.97-17.69-3.44-25.38,3.58-.85.78-2.58,1.38-3.6,1.06-18.06-5.51-32.96,5.07-51.01,9.72-.38-8.29-.75-16.45-1.28-27.89,15.84,4.45,29.7,8.56,43.69,12.14Z"/>
  <path class="cls-1" d="M1347.72,541.77c-.01-.06-.03-.12-.04-.18-.09-.07-.17-.13-.25-.2,0,0,.02.02.05.06.08.11.25.32.25.32Z"/>
  <path class="cls-1" d="M1744.11,543.57c-21.34,0-42.69.38-64.01-.22-6.93-.19-15.05-1.14-20.37-4.91-6.94-4.93-11.63-13.02-15.86-18.06,65.49-9.21,134.19-18.88,202.89-28.55-27.08-.16-53.95,1.48-80.74,3.85-21.25,1.88-42.4,4.86-63.63,6.98-17.61,1.76-35.36,2.29-52.89,4.57-42.2,5.48-84.31,11.67-127.55,17.72,3.66-11.43,6.66-20.8,9.66-30.18-.39-.12-.79-.23-1.18-.35-7.83,15.44-15.66,30.89-23.04,45.44-3.46-.84-6.93-1.69-12.21-2.97,1.86,6.6,3.13,11.13,4.87,17.28-13.8-21.32-27.01-24.61-41.1-11.1,4.65,8.63,9.03,17.19,21.17,17.28,3.77.03,7.63,1.9,11.18,3.51.73.33.26,3.28.35,5.22,2.47.14,5.41.32,7.42.44,1.9,2.76,2.98,5.25,4.84,6.82,3.66,3.1,8.2,5.23,11.58,8.57,18.76,18.51,36.99,37.62,60.6,50.26,22.88,12.25,46.78,17.67,70.57,4.08,23.66-13.52,29.66-36.61,27.93-62.08-.6-8.83-3.33-17.51-5.1-26.36,25.33-1.28,50.03-2.53,74.73-3.78-.04-1.16-.07-2.32-.11-3.47ZM1587.25,529.65c10.58-2.15,21.77-2.08,31.93-5.35,9.61-3.09,16.27-.71,22.94,5.46,3.58,3.32,7.46,6.33,11.2,9.48-.45.93-.91,1.86-1.36,2.8h-108.34l-.65-2.22c14.75-3.42,29.44-7.14,44.27-10.16ZM1651.45,625.51c-17.05,17.73-41.75,16.07-63.95,4.42-22.62-11.87-36.59-32.46-51.25-52.42-3.45-4.69-10.32-6.87-15.11-9.89.77-.04,3.18-.14,6.68-.3-2.91-4.41-5.22-7.91-7.53-11.41.42-.95.85-1.9,1.27-2.85,7.68,2.94,15.37,5.87,23.05,8.81-.35.83-.7,1.66-1.05,2.49,2.17-1.74,4.19-4.75,6.53-5.01,29.29-3.26,58.58-6.58,87.96-8.93,24.78-1.98,30.41,3.25,30.52,28.29.08,17.41-4.67,33.86-17.11,46.79Z"/>
  <path class="cls-1" d="M476.54,278.26c.54,2.66-1.44,6.5-3.37,8.87-5.92,7.27-5.69,12.45,1.46,18.51,2.46,2.09,5.1,4.2,6.88,6.82,3.39,5.01,7.48,6.09,13.42,5.32,14.86-1.92,29.83-3,44.76-4.43.27.66.54,1.32.81,1.97-11.29,10.23-22.59,20.45-33.91,30.71-2.8-3.1-4.6-5.1-8.36-9.26,7.25,19.13-10.6,17.99-17.73,27.72,14.07-5,24.82-1.67,35.09,5.47,1.33.93,7.14-1.56,8.2-3.76,7.25-14.99,13.66-30.39,20.66-45.5,1.22-2.63,4.32-6.67,6.02-6.42,13.2,1.95,26.27,4.79,39.76,7.43-1.22,5.86-2.15,10.35-3.26,15.67,5.89-3.89,4.94-15.27,14.63-11.4,17.93,7.16,34.66,16.17,45.25,33.5,3.61,5.9,7.02,11.29-1.33,17.51,4.53,2.41,7.75,4.98,11.34,5.65,1.52.28,5.53-3.47,5.45-5.27-.75-17.23-2.13-34.43-3.32-51.64-.77-5.61-1.54-11.22-2.33-16.81-.82-2.94-.7-6.97-2.63-8.64-3.91-3.4-8.73-6-13.54-8.07-6.78-2.91-10.49-7.52-11.14-14.87-.96-10.92-2.14-21.82-3.23-32.72-1.95,10.94-2.8,22.03-4.49,32.98-.39,2.56-3.6,6.68-5.58,6.72-39.59.75-79.18.83-118.77,1.53-7.65.14-11.88-2.87-13.88-9.63-4.95-16.73-9.63-33.53-14.58-50.26-.98-3.32-2.67-6.42-4.03-9.63-1.28,1.62-1.46,2.62-1.25,3.54,4.38,19.45,9.01,38.86,13,58.39Z"/>
  <path class="cls-1" d="M775.54,544.41c2.97.79,7.16-.42,9.09,1.24,8.56,7.41,9.27,24.97,2,34.17-4.37,5.53-8.8,11.01-13.86,17.33,8.12-2.9,13.31-10.12,19.33-11.54,15.51-3.65,31.76-4.16,47.71-5.92.21,1.07.42,2.14.62,3.21-5.14,6.35-10.27,12.7-15.41,19.04,8.18-1.81,15.17-5.12,21.92-8.87,2.03-1.13,3.28-4.84,5.08-4.98,6.65-.54,9.35-4,10.36-10.15.83-5.04,2.47-9.95,3.75-14.91,0,0,0,0,0,0,.45-2.15.91-4.31,1.36-6.46,4.01-12.97,8.03-25.94,12.04-38.91-.12.09-.24.18-.36.26,0-9.03,0-18.06,0-25.64.99,2.74,2.6,7.16,4.2,11.59.41-.16.81-.32,1.22-.48-.43-8.67-.85-17.34-1.28-26.01,6.34,8.84,9.25,18.7,14.62,26.97,2.66,4.09,9.85,5.23,15.73,8.06,1.15-5.24,1.67-7.63,2.2-10.03,3.08,6.91,6.01,13.5,8.95,20.09,5.69,5.28,13.34,9.66,16.35,16.18,3.08,6.68,1.46,15.53,1.9,23.43.78.12,1.56.23,2.34.35,2.05-6.72,4.1-13.44,6.16-20.16.77-1.56,1.54-3.12,2.32-4.67,1.11-3.41,1.77-7.06,3.42-10.19,2.86-5.44,1.34-8.01-5.25-8.43,5.6-5.26,7.78-10.27-.48-16.41-4.08,6.97-7.86,13.42-11.84,20.23-7.24-12.92-14.35-25.13-20.89-37.62-1.64-3.13-1.48-7.2-2.07-10.43-2.32-2.05-5.96-4.12-7.95-7.25-7.25-11.37-14.37-22.87-20.69-34.77-3.66-6.89-8.04-7.14-14.15-4.81,1.31,9.67,2.54,18.71,3.77,27.75-2.13-3.3-1.83-7.35-3.6-10.05-.89-1.35-5.55-.24-9.37-.24,1.47-1.92,3.03-3.84,4.47-5.85,4.33-6.04,1.99-12.39-5.27-12.72-11.22-.52-22.48-.14-33.72-.14-.59.84-1.18,1.68-1.77,2.52,22.79,3.8,30.3,16.96,28.44,38.24-1.06,12.11,2.73,24.56,2.94,36.89.2,11.75-2.52,23.58-1.95,35.28.71,14.72-2.14,27.36-13.79,37.19-13.57-5.9-17.6-10.59-27.63-32.33,2.51-1.05,5.03-2.1,5.69-2.37-3.87-3.5-7.64-6.92-11.42-10.32-1.2-1.08-2.53-3.13-3.63-3.02-11.61,1.16-23.88-4.62-34.87,3.11-4.61,3.24-9.21,6.47-13.82,9.71,4.5,7.98,11.48,1.33,17.11,2.83Z"/>
  <path class="cls-1" d="M924.84,522.51s-.01-.02-.02-.04c-.07-.06-.14-.13-.21-.19,0,0,.23.23.23.23Z"/>
  <path class="cls-1" d="M488.07,572.88h0c-.06,0-.04,0,0,0Z"/>
  <path class="cls-1" d="M568.73,636.84c-20.69-9.17-31.24-20.57-32.99-35.56-1.32-11.31-3.16-22.59-5.49-33.74-2.91-13.96-3.4-14.02-17.69-13.13-1.31.08-2.64-.04-3.96,0q-16.76.36-16.33,16.78c.01.54-.5,1.1-.88,1.89-1.53-.09-3.09-.18-3.33-.19,1.5,6.49,4.26,12.69,4.1,18.8-.4,14.81-2.28,29.57-3.37,44.36-3.86,52.37-49.05,81.94-86.33,85.64-33.63,3.33-59.83-35.04-43.68-64.47,2.9-5.29,5.98-10.48,9.56-16.74-13.31,7.54-22.51,29.41-19.81,44.87,4.57,26.27,29.94,45.01,57.46,43.07,30.32-2.14,55.34-15.17,76.78-35.99,13.73-13.33,26.59-27.72,41.39-39.73,8.84-7.18,20.48-11.15,31.26-15.59,3.83-1.57,8.84-.25,13.32-.25Z"/>
  <path class="cls-1" d="M1491.77,806.17v-10.39c-1.54,1.89-2.27,2.87-3.09,3.77-2.15,2.38-4.33,4.73-6.49,7.1-1.75-2.78-4.88-5.5-5.02-8.37-.58-11.41-.24-22.87-.24-35.64h26.94c.26-1.11.52-2.23.78-3.34-5.92-2.29-11.84-4.58-17.75-6.86,9.07.19,17.64-.49,20.39-11.92-10.43-.81-20.48-1.59-30.74-2.39-.68-9.45-1.53-17.92-1.83-26.41-.3-8.43,2.4-13.82,12.62-11.92,4.91.92,10.13.16,17.92.16-9.29-9.54-16.25-16.68-23.21-23.82.35-.71.7-1.41,1.05-2.12h-16.15c-.68-5.35-1.22-9.6-1.76-13.85q-4.34,14.6-19.43,14.21c-5.67-.13-11.34-.02-17.02-.02-.84.81-1.67,1.63-2.51,2.44,27.56,12.42,19.3,35.21,20.57,56.87-7.87-4.42-14-7.87-20.13-11.31,3.46,5.07,8.29,7.93,12.17,11.76,3.22,3.18,6.88,7.23,7.61,11.37,1.75,9.97,3.23,11.4,12.48,7.1,6.68-3.11,13.19-7.23,21.18-.9-3.04,0-5.32-.06-7.6,0-11.4.34-14.91,4.19-12.88,15.42,2.09,11.52,4.92,22.9,7.42,34.34.43.97.86,1.94,1.29,2.91,5.64,8.18,11.27,16.36,18.34,26.61,8.36,0,19.54-.31,30.7.09,11.55.41,24.75-1.78,26.88,12.86,4.86-10.17,9.05-21.58,15.44-31.58,6.37-9.96,14.95-18.51,22.56-27.69-.46-.96-.93-1.91-1.39-2.87-25.08,27.22-56.54,27.94-89.09,24.37Z"/>
  <path class="cls-1" d="M956.33,661.91c.33-1.37.63-2.75.9-4.13-4.19,3.7-8.34,7.37-12.42,10.97-1.54.29-3.25.8-5.04,1.47,8.22-1.78,15.73-4.9,16.56-8.31Z"/>
  <path class="cls-1" d="M916.78,668.34c3.25-2.81,6.5-5.62,9.76-8.44v-17.64c-12.27,8.26-15.58,18.09-9.76,26.08Z"/>
  <path class="cls-1" d="M951.57,544.06c.03.22.63.56.63.55,1.91-2.13,4.16-4.06,5.61-6.47,10.29-17.15,20.4-34.4,30.62-51.59,1.14-1.91,2.66-3.6,4.01-5.39.79.36,1.58.72,2.37,1.09-1.55,8.45-3.11,16.91-4.17,22.71.65,4.56,2.11,7.62,1.23,9.68-7.34,17.2-14.55,34.51-22.97,51.2-5.29,10.49-11.32,21.22-19.44,29.46-5.24,5.31-7.25,9.65-6.95,16.41.33,7.43.08,14.89.08,20.72-4.69,1.71-8.5,3.09-12.3,4.47.87.64,1.73,1.29,2.6,1.93-1.26,7.36-2.51,14.72-3.77,22.08,5.48,1.74,14.16-.52,22.08-6.26,3.09-2.24,5.69-4.75,7.75-7.33.69-4.97,1.31-10.18,2.15-15.78.51-.22,1.01-.47,1.5-.73-.32-.42-.69-.79-1.09-1.14,4.38-3.79,8.75-7.56,13.12-11.33,1.87-3.82,2.97-8.15,3.06-12.76.2-11.29,7.17-13.65,15.15-16.65-2.14,2.46-4.27,4.92-6.56,7.56,6.05,2.47,10.42,4.02,13.92,4.52,2.25-2.89,3.78-5.84,4.45-8.56,2.04-1.75,4.06-3.49,6.08-5.24-8.77-5.2-17.23-11.03-28.67-2.79-1.28.92-5.32-1.98-7.74-2.97-.55,9.54-1.26,10.16-15.67,11.89,8.1-12.91,15.92-25.37,23.74-37.84,3.77-11.76,7.52-23.53,11.38-35.26.18-.56,1.24-1.05,1.97-1.18,4.67-.85,5.06-.81,5.11-3.45.34-21.76,10.38-40.22,19.28-57.36-5.65-4.25-10.92-8.21-16.19-12.18,0,0,.32.32.32.32-10.93-7.39-18.69-5.62-25.21,5.73-3.43,5.98-7.12,11.83-10.24,17.97-3.65,7.17-5.44,16.72-19.44,8.42,4.54,5.26,6.84,7.93,9.04,10.48-1.85,4.29-3.49,8.09-5.13,11.89.68.95,1.35,1.9,2.03,2.86,3.81-2.07,7.63-4.14,12.06-6.54-1.67,3.17-3.42,6.16-4.84,9.31-1.3,2.89-3.99,6.77-3.04,8.79,4.36,9.33-1.03,15.58-5.57,22.31-.77,1.56-1.54,3.11-2.32,4.67,0,.6-.08,1.21,0,1.79ZM976.39,594.94c-1.18,3.74-1.94,8.25-2.71,8.25-5.5.01-10.99-.89-16.26-3.29,5.47-1.43,10.95-2.86,18.97-4.96Z"/>
  <path class="cls-1" d="M1210.43,757.39c5.58-2.79,11.16-5.58,17.93-8.96,0,6.75.1,11.65-.03,16.55-.15,5.68,4.08,8.11,7.47,5.44,7.93-6.25,17.22-1.33,24.59-4.47-.79-3.56-2.13-6.94-2.18-10.33-.19-14.84.92-29.77-.23-44.52-1.1-14.13,5.69-24.09,14.12-35.38,5.64,7.14,10.73,13.58,16.06,20.32-3.51,1.83-5.22,2.72-7.29,3.8,4.52,2.26,9,3.27,11.59,6.04,7.18,7.68,11.03,7.41,18.2-.79,9.37-10.72,19.51-20.77,30.22-32.06h-102.61c6.74-17.56,24.76-9.36,32.97-19.61-3.69-.47-7.03-.9-10.68-1.37,1.49-4.87,2.84-9.26,4.55-14.83-7.82-2.02-16.02-4.14-24.21-6.25-.22.75-.43,1.5-.65,2.26,6.38,2,12.76,4,19.23,6.03-.6,4.83-1.11,8.9-1.73,13.93-41.32-1.24-81.74-5.96-121.89-14.09,16.27,5.83,32.6,11.34,49.29,15.43,13.93,3.41,28.31,4.96,42.37,7.86,2.44.5,4.33,3.65,6.47,5.58-2.42,1.48-4.73,3.94-7.29,4.25-5.53.65-11.2.2-16.81.2,17.34,11,18.6,26.55,19.23,44.05.63,17.69-2.05,31.84-18.69,40.96Z"/>
  <path class="cls-1" d="M1126.86,766.16c.22-.18.45-.36.67-.54l-.05-.08c-.09-.14-.26-.43-.26-.43-.12.35-.24.7-.36,1.05Z"/>
  <polygon class="cls-1" points="1127.22 765.11 1127.22 765.11 1127.22 765.12 1127.22 765.11"/>
  <path class="cls-1" d="M1109.32,678.54s-.01.02-.02.02v.02s.01-.03.02-.04Z"/>
  <path class="cls-1" d="M1119.49,788.8c1.23-7.74,4.74-15.12,7.37-22.63-2.07,1.65-4.14,3.3-6.21,4.95-12.14-1.6-10.52-12.31-13.24-20.02-1.99-5.66-3.47-11.49-5.3-17.64,6.96-7.18-1.96-16.11-1.57-24.66.41-8.94-1.66-19.38-14.69-22.4.85-.71,1.7-1.42,2.55-2.13,3.04,1.88,6.09,3.76,10.12,6.25,3.51-3.9,7.14-7.94,10.77-11.97,0-6.12,0-12.25,0-20.98-1.99,6.55-3.2,10.52-5.05,16.6-5.71-1.95-11.05-3.77-16.17-5.52-2.56,11.16-15.69-.79-21.79,6.35,4.42,2.78,8.6,5.32,12.69,8.01,6.36,4.18,10.8,9.49,10.74,17.7-.19,24.6-.09,49.21-.53,73.81-.06,3.33-2.57,6.61-4.12,10.33.77.83,4.1,2.89,3.88,4.44-1.7,12.16,1.23,25.4-7.76,36-19.79,23.32-39.02,47.16-59.59,69.77-9,9.9-20.72,17.34-31.21,25.9.48.66.95,1.33,1.43,1.99,18.8-12.88,38.21-24.97,56.23-38.86,18.09-13.95,34.79-29.69,53.9-46.2v75.99c.92-.02,1.84-.03,2.76-.05.81-12.34,1.5-24.69,2.46-37.01.96-12.46,2.98-24.89,3.05-37.35.07-10.73,5.55-15.22,14.62-17.7,2.97,3.19,5.71,6.13,8.45,9.07-1.1-4.07-2.43-7.98-4.97-10.78-8.22-9.06-10.65-19.9-8.85-31.26Z"/>
  <path class="cls-1" d="M1347.47,541.46s-.05-.06-.05-.06c.01.09.03.17.04.26.08.04.17.08.25.12,0,0-.17-.21-.25-.32Z"/>
  <path class="cls-1" d="M1221.15,539.51c2.9.21,5.56.4,10.05.73-2.19,12.35-1.71,25.19-6.87,35.07-7.32,14-20.63,23.45-35.77,29.55-10.65,4.29-21.05,9.2-31.57,13.83,14.37-1.48,27.82-11.09,43.08-3.29-2.21-1.76-4.41-3.51-7.16-5.69,16.03-4.37,31.32-8.53,46.75-12.73.74,3.3,1.3,5.82,2.35,10.5,1.29-5.45,2.03-8.57,2.65-11.17,34.64-6.47,68.74-12.84,104.16-19.46,1.41,1.62,4.05,4.53,6.57,7.54,2.63,3.14,5.14,6.39,8.18,10.18,3.23-16.53,1.96-25.6-6.52-33.94-5.58-5.49-8.47-11.61-9.6-18.96-7.18-3.31-14.36-6.62-21.53-9.93-3.96-1.32-7.91-2.64-11.87-3.96-5.31-.79-10.63-1.58-15.94-2.37-.48.63-.95,1.26-1.43,1.89,11.36,10.57,22.71,21.15,33.92,31.58-13.03,15.29-63.42,30.47-89.46,27.2,7.11-4.33,12.82-7.8,18.56-11.29-.63-5.94-2.89-12.45-1.52-18.07,1.54-6.32-1.15-8.85-5.03-11.67-2.65.02-5.33.02-8.69.02-2.59-11.42-7.16-12.85-23.34-5.55Z"/>
  <path class="cls-1" d="M1253.26,545.04s-.34-.19-.37-.21c.1.07.19.14.28.21.03,0,.06,0,.08,0Z"/>
  <path class="cls-1" d="M1406.23,714.87c19.43-51.8,50.79-94.71,89.55-132.76-35.69,19.97-64.57,47.41-90.77,78.3-7.62-11.94-14.51-22.74-21.4-33.54,3.79,11.58,8.16,22.86,14.37,33.01,4.05,6.61,1.89,10.05-3.1,14.43-2.26-.93-4.75-1.94-6.77-2.77.79,4.63,3.25,9.5,1.91,12.83-6.94,17.23-14.86,34.07-22.43,51.04-1.99-.83-3.52-1.47-3.6-1.5-.95,8.65-1.88,17.06-2.8,25.43h19.75c.19.8.89,3.77,1.59,6.75.97.06,1.95.12,2.92.18,4.55-11.11,9.57-22.07,13.49-33.39,2.42-7,5.39-12.54,13.15-14.24.66-.15,1.13-1.19,2.23-2.44-2-.12-3.26-.1-4.5-.3-1.12-.18-2.21-.61-3.6-1.01Z"/>
  <path class="cls-1" d="M923.57,389.89c8.6,4.14,17.17,8.35,25.8,12.43,1.13.53,2.58.56,3.88.56,27.37-.03,54.74-.1,82.1-.14,18.25-.02,36.5,0,53.65,0,0,4.92-.06,8.49.16,12.04.01.22,3.2.69,3.33.38,1.55-3.76,2.81-7.64,4.93-13.76h78.03c-5.56-4.76-8.68-7.65-12.04-10.23-3.13-2.41-6.28-5.77-9.83-6.37-3.65-.62-7.79,2.47-11.69,2.42-28.38-.31-56.75-1.25-85.13-1.5-32.84-.29-65.68-.07-98.53-.07-.08-.67-.16-1.34-.24-2.02,8.03-3.38,16.06-6.75,24.09-10.13-.38-.95-.75-1.89-1.13-2.84-6.5,2.11-12.96,4.3-19.49,6.3-12.63,3.86-25.92,11.75-36.05-5.1,1.21,3.46,2.41,6.93,4.14,11.89h-51.81c.24,1.9.12,2.65.44,3.09.73.99,1.64,1.85,2.5,2.76,13.36-.21,26.73-.42,40.11-.56.93,0,1.91.43,2.78.85Z"/>
  <path class="cls-1" d="M880.81,389.75s-.09-.09-.13-.14c-.02,0-.03,0-.05,0-.02,0-.05,0-.07,0,.02.02.26.14.26.14Z"/>
  <path class="cls-1" d="M1109.66,678.16c-.12,1.29.26,3.02-.43,3.8-12.47,13.94-5.58,28.55-2.16,43.34,1.81,7.8,1.04,16.17,2.55,24.07.96,5.05,3.94,9.72,6.02,14.57.82-.22,1.65-.44,2.47-.65.62-2.57,1.24-5.15,2.41-9.97,2.84,4.99,4.81,8.44,6.74,11.82,7.72,5.61,20.03,4.48,22.3-3.31,4.39-15.03,11.79-27.47,24.9-36.06-6.21-7.8-10.68-7.04-17.56-1.08-11.04,9.57-23.7,17.29-36.06,26.06-4.55-15.37,1.79-24.87,9.25-34.06-3.26,2.84-6.51,5.68-10.89,9.5.59-10.91,1.09-20.01,1.6-29.51,15.94-1.58,30.79-.11,44.61,7,2.42,1.24,3.76,4.96,5.09,7.78.97,2.05,1.12,4.5,1.64,6.77,2.01-1.72,4.77-3.06,5.87-5.24,2.3-4.56,3.72-9.55,5.5-14.37,1.07-3.25,2.14-6.51,3.2-9.76-6.66-11.94-18.41-14.82-30.44-15.87-11.41-.99-22.98-.08-34.45-.58-5.63-.24-9.99.75-12.51,6.14,0,.01-.01.03-.02.04,0,0,.36-.42.36-.42Z"/>
  <path class="cls-1" d="M1127.22,765.11s0,0,0,0h0s.17.29.26.43c.03.05.05.08.05.08-.09-.16-.19-.33-.28-.49,0,0-.02-.01-.03-.02,0,0,0,0,0,0Z"/>
  <path class="cls-1" d="M679.86,611.46c-3.8-3.43-6.51-8.27-9.07-12.83-4.07-7.25-8.44-12.76-18.23-12.05-4.11.3-10.33-1.83-12.36-4.96-4.79-7.37-12.73-8.38-19.07-12.49-6.87-4.47-11.83-2.54-17.49,2.59,14.25,18.67,28.17,36.89,44,57.63-11.99,11.65-23.8,23.14-35.61,34.62.08.15.16.3.24.46,13.31-10.42,26.62-20.85,39.91-31.28,9.84,11.76,19.7,23.52,29.83,35.62-3.08,2.59-5.64,4.75-8.2,6.91,9.43-4.8,15.51.34,21.92,6.57.98-11.7,3.53-22.96-4.95-32.47-.67-.75-.89-2.46-.55-3.47,4.66-14.07.33-25.18-10.38-34.86Z"/>
  <path class="cls-1" d="M1234.08,872.68c2.48-.21,4.99-.03,8.86-.03-1.7-2.84-2.47-4.59-3.63-6.01-19.17-23.3-38.1-46.82-57.77-69.7-6.97-8.11-15.83-14.57-23.73-21.9-6.41-5.95-12.88-5.42-19.88-.33,6.87,9.56,13.56,19.29,20.7,28.68,7.07,9.3,14.61,18.24,22.36,27.87,2.08-3.21,3.68-5.67,5.27-8.13,1.12-.04,2.25-.08,3.37-.12-12.51,14.9,2.1,24.56,7.17,32.56,6.94,10.96,21.56,18.42,37.28,17.11Z"/>
  <path class="cls-1" d="M1284.19,376.43c60.61-60.09,122.04-120.98,183.47-181.87-.5-.53-1.01-1.06-1.51-1.59-66.61,58.84-133.21,117.68-200.69,177.29,6.76,2.23,12.02,3.96,18.74,6.17Z"/>
  <path class="cls-1" d="M1352.75,772.97c-4.97-3.36-9.88-6.68-14.79-10-.87.53-1.74,1.07-2.62,1.6.67,3.57,1.34,7.13,1.8,9.56-3.1,2.98-9.63,6.67-9.25,9.4,1.06,7.57-4.7,9.33-7.96,13.27-1.85,2.23-3.72,4.44-5.59,6.66.35.26.7.53,1.04.79,4.42-2.84,8.84-5.67,14.15-9.08,4.23,10.32,8.69,20.16,12.28,30.29,3.66,10.31,6.47,20.91,10.05,32.68,2.38-8.3,4.06-15.8,6.69-22.96,6.78-18.51,14.05-36.83,20.91-55.31.76-2.06,1.08-5.36-.04-6.85-5.09-6.76-21.95-6.05-26.67-.06Z"/>
  <path class="cls-1" d="M665.56,379.18c9.9.14,20.24-6.5,26.01,6.45,5.23-4.58,10-7.77,13.36-12.07,2.09-2.67,3.88-7.92,2.64-10.48-10-20.54-22.92-39.13-40.88-53.6-2.11-1.7-6.63-.42-10.03-.55.78,5.58,1.55,11.19,2.33,16.81,2.19,17.8,4.38,35.6,6.57,53.44Z"/>
  <path class="cls-1" d="M1384.08,427.64h-69.21c-.68.68-1.36,1.37-2.04,2.05,21.72,4.58,21.82,20.05,21.3,36.25-.25,7.88.98,15.8,1.46,23.71.35,5.77,4.16,7.23,8,4.46,7.44-5.36,22-4.69,18.37-20.47-.39-1.71,3.68-4.15,4.95-6.63,1.34-2.6,1.81-5.64,3.32-10.7-3.32,3.03-4.67,4.26-6.69,6.1-3.12-17.09,7.17-26.26,20.52-34.77Z"/>
  <path class="cls-1" d="M670.9,382.97c-8.92,4.42-17.17,6.07-25.39-1.15-.8-.7-2.55-.78-3.73-.54-11.66,2.43-26.37,23.41-23.79,35.25,1.66,7.62,5.41,14.79,8.6,23.14,4.11-2.91,7.49-5.34,10.91-7.72,10.92-7.58,19.21-21.74,36.39-14.84-2.93-2.22-5.87-4.44-9.32-7.06,8.05-7.46,15.45-14.32,23.13-21.44-4.57-7.47-10.55-8.75-16.8-5.66Z"/>
  <path class="cls-1" d="M496.88,428.04c8.55-5.43,15.77,1.08,22.9,9.4,2.03-3.46,3.88-5.5,4.49-7.86,5.14-19.66-.67-37.41-10.59-54.07-1.72-2.88-6.14-4.15-9.32-6.17-11.78-7.48-23.33.29-34.96.87-3.43.17-6.68,4.1-10.01,6.3,2.11,1.44,3.33,1.24,4.54,1,1.29-.25,2.57-.54,3.87-.77,15.04-2.69,20.77.99,23.47,16.12,1.31,7.32,1.34,14.87,1.99,22.83h-11.11c4.34,3.64,8.89,7.46,14.73,12.36Z"/>
  <path class="cls-1" d="M328.16,259.25c4.88,8.34,17.23,16.88,4.53,29.71,8.51-9.37,14.05-1.54,20.17,1.59,1.79-2.99,2.99-6.73,5.55-8.78,6.83-5.48,7.91-9.15-.44-14.75-20.27-13.62-30.12-32.68-29.66-57.69.4-21.89,5.93-41.34,20-58.25,3.27-3.93,6.07-8.13-1.04-12.36-2.65,3.02-5.44,5.76-7.73,8.87-16.16,22.03-22.62,46.86-21.75,74,.14,4.51-2.49,9.11-3.86,13.74,12.86.71,9.31,15.54,14.21,23.92Z"/>
  <path class="cls-1" d="M352.89,290.56s-.02-.01-.03-.02c-.02.03-.03.06-.05.09.03-.02.05-.05.08-.07Z"/>
  <path class="cls-1" d="M352.92,290.58s0,0,0,0c-.03.02-.1.05-.11.06,0,0,.11-.05.11-.05Z"/>
  <path class="cls-1" d="M1254.51,830.7c6.38.12,13.7-8.73,10.62-12.41-9.94-11.83-6.09-25.66-6.98-38.76-.65-9.61-3-11.2-12.22-7.65-5.02,1.93-10.35,3.09-17.04,5.03-1.57,14.76,4.69,34.71-17.84,47.18,7.93,1.85,13.12,3.46,18.43,4.21,8.3,1.16,16.67,2.25,25.03,2.4Z"/>
  <path class="cls-1" d="M352.92,290.58s.02,0,.02-.01c8.36,6.09,16.7,12.19,25.94,18.95-11.33,11.61-22.21,22.77-33.1,33.92.6.57,1.19,1.15,1.79,1.72,9.93-8.38,20.24-16.36,29.65-25.3,6.24-5.92,12.25-6.3,19.58-3.24,5.55,2.32,11.33,4.13,16.59,6.01,7.62-11.82,2-18.29-6.2-23.94-1.47-1.02-2.93-2.04-4.39-3.06-3.69-1.64-7.37-3.29-11.06-4.93.74-.41,1.47-.81,2.21-1.22-1.73-2.91-2.79-7.08-5.35-8.45-4.84-2.58-10.49-3.76-15.91-5.05-1.53-.36-3.83.46-5.11,1.53-5.03,4.18-9.81,8.66-14.67,13.03-.03.02-.05.05-.08.07,0,0,.07-.04.11-.06Z"/>
  <path class="cls-1" d="M1458.02,783.84c-2.75-5.66-5.26-11.44-7.87-17.16-3.23,8.58-7.75,15.91-5.32,23.25,4.74,14.33,1.14,25.53-10.3,34.67-4.76,3.8-9.7,7.37-14.56,11.04.22.45.44.89.66,1.34,9.01-2.18,18.02-4.36,27.78-6.73.59,6.37,1.04,11.23,1.48,16.08.94.61,1.88,1.22,2.82,1.83-3.18-24.47,14.83-15.28,26.42-18.42-3.77-8.88-7.28-17.12-10.78-25.36-.43-.97-.86-1.94-1.29-2.91-3.02-5.87-6.15-11.69-9.04-17.62Z"/>
  <path class="cls-1" d="M1137.65,479.73c2.7-2.21,5.32-4.35,7.87-6.41-2.76,1.2-5.59,3.76-7.87,6.41Z"/>
  <path class="cls-1" d="M1160.51,472.95c-6.6,6.31-14.03,13.33-22.14,20.91,0,0,0,0,0,0,9.04,7.82,25.9,6.47,36.47-3.05,1.99,7.87,3.77,14.91,6.05,23.9,4.16-1.31,8.4-2.65,12.63-3.98-.98-6.57-.54-13.81-3.23-19.6-6.23-13.43-17.59-17.18-29.79-18.19Z"/>
  <path class="cls-1" d="M1193.79,510.65s-.07.02-.11.03c-.05.02-.1.03-.15.05,0,.04.01.08.02.12,0,.03,0,.06.01.08.03-.03.23-.29.23-.29Z"/>
  <path class="cls-1" d="M1044.03,759.56s-.37.36-.37.36c.12-.07.23-.14.35-.22,0-.05,0-.1.02-.14Z"/>
  <path class="cls-1" d="M1039.38,779.88c.55.66-.88,2.84-1.17,4.36-2.62,13.7-5.19,27.4-7.78,41.11,14.67-13.19,23.14-29.23,29.18-46.6,5-14.37,4.82-14.44-8.8-23.25-2.2,1.36-4.49,2.78-6.79,4.2-.11.92.02,2.05-.48,2.65-4.33,5.15-10.76,9.65-4.16,17.53Z"/>
  <path class="cls-1" d="M443.59,304.26c15.67,1.42,18.48-.48,22.5-17.41-1.58-.22-3.1-.51-4.63-.62-19.62-1.32-39.23-2.76-58.86-3.6-1.38-.06-4.02,4.39-4.11,6.81-.07,2.02,2.76,4.13,4.3,6.2,1.46,1.02,2.93,2.04,4.39,3.06,11.37,6.91,24.14,4.44,36.4,5.55Z"/>
  <path class="cls-1" d="M1531.99,694.11c-.06-.09-.11-.17-.17-.26-.06-.03-.11-.06-.17-.08l.34.34Z"/>
  <path class="cls-1" d="M1569.27,662.09c-.57-.85-1.14-1.71-1.71-2.56-21.15,16.5-45.89,15.97-70.28,14.78-1.05,10.4-.29,13.28,7.93,17.13,2.88,1.35,8.48-.59,11.62-2.78,8.11-5.66,11.38-.26,14.99,5.19,2.63,1.28,5.24,2.56,7.04,3.44,5.44-6.49,10.39-12.52,15.49-18.43,4.89-5.66,9.94-11.19,14.92-16.77Z"/>
  <path class="cls-1" d="M1275.22,911.39c-7.45-8.38-12.77-8.53-21.02-.04,29.31,29.13,77.91,61.46,105.07,69-33.39-16.56-59.71-41.57-84.05-68.96Z"/>
  <path class="cls-1" d="M1115.22,549.66c-.59-1.09-1.17-2.18-1.76-3.27,15.77-13.34,31.53-26.68,48.36-40.91-19.8-8.31-21.7-7.86-31.79,4.3-1.92,2.31-4.49,4.07-6.8,6.05-5.84,7.51-11.68,15.03-18.61,23.94,3.1,2.89,6.84,6.4,10.59,9.9Z"/>
  <path class="cls-1" d="M1123.33,515.7s-.35.33-.35.33c.08-.07.17-.15.26-.22.03-.04.06-.08.09-.11Z"/>
  <path class="cls-1" d="M1003.91,446.07s0,0,0,0c5.64,2.88,11.62,7.99,17.6,2.21,7.46-7.21,13.88-15.51,20.49-23.04-10.58.5-22.7,1.08-34.71,1.65-.99-6.64-1.79-11.98-2.58-17.32-.86-.02-1.72-.04-2.57-.05-.81,5.49-1.62,10.98-2.43,16.46-10.19-1.69-8.6,6.5-9.74,8.89,5.47,4.42,9.87,7.97,14.28,11.52,0,0-.32-.31-.32-.32Z"/>
  <path class="cls-1" d="M905.07,714.14c.09-.04.17-.08.26-.13,5.7-2.8,11.66-5.21,17.02-8.56,6.73-4.21,8.9-17.48,3.68-24.9-.41-.58-.84-1.1-1.28-1.58-8.55,6.76-13.84,14.43-13.17,18.92-2.93,2.56-5.8,5.05-8.61,7.49.6,2.41,1.13,4.84,1.73,7.25.13.5.25,1.01.38,1.5Z"/>
  <path class="cls-1" d="M479.13,316.26c-4.57-4.47-9.14-8.93-14.28-13.96-7.87,8.46-15.38,9.18-23.98,6.44-3.57-1.13-7.82-.02-11.75-.14-7.68-.24-9.44,5.43-9.92,10.99-.54,6.3.34,12.72.59,18.77,4.71-14.52,17.36-15.73,31.09-15.81,8.85-.05,17.69-1.68,26.54-2.6.57-1.23,1.14-2.47,1.71-3.7Z"/>
  <path class="cls-1" d="M560.48,380.65c-1.02-.38-2.05-.77-3.07-1.15-6.37,6.75-12.74,13.51-20.66,21.9v-16.63c-13.63.11-12.42.32-10.11,12.19,2.2,11.31,2.09,23.57.35,35.01-1.59,10.5-1.23,17.1,9.38,26.14-2.76-29.92-1.18-57.32,24.1-77.46Z"/>
  <path class="cls-1" d="M1248.52,878.12c-.85-1.1-2.64-1.91-4.08-2.04-6.16-.59-12.34-1.05-18.52-1.17-1.66-.03-4.62,1.14-4.74,2.06-.24,1.84.52,4.4,1.82,5.76,3.84,4.02,8.26,7.47,12.23,11.37,8.22,8.07,15.8,18.2,29.29,5.46-5.13-6.91-10.46-14.25-16.01-21.42Z"/>
  <path class="cls-1" d="M1179.11,722.57c-1.77,3.12-3.89,6.13-6.32,8.77-4,4.34-8.65,8.1-12.53,12.54-5.19,5.95-7.42,21.68-3.61,24.88,5.68,4.77,11.74,9.09,17.64,13.6.22-.29.45-.58.67-.88-5.29-8.25-10.57-16.5-16.45-25.66,13.31-11.53,26.03-22.53,38.88-33.66-6.86-5.32-15.43-4.64-18.3.41Z"/>
  <path class="cls-1" d="M356.58,141.09c22.97-21.66,49.65-35.74,81.88-37.98-.14-1.16-.27-2.31-.41-3.47-9.07,1.06-18.25,1.52-27.18,3.29-20.31,4.02-37.91,13.95-53.96,26.68-6.47,5.13-6.32,6.61-.34,11.47Z"/>
  <path class="cls-1" d="M1510.33,742.7c-6.75,10.75-2.99,21.38-.61,30.65,9.58-14.61,19.43-29.65,29.25-44.63-8.53,3.48-17.11,6.89-25.58,10.54-1.28.55-2.25,2.14-3.06,3.44Z"/>
  <path class="cls-1" d="M901.88,392.39c-2.39.8-5.22.61-7.82.44-11.55-.73-13.26.28-18.33,10.61h55.29c-8.98-11.18-17.76-14.84-29.14-11.05Z"/>
  <path class="cls-1" d="M1335.63,721.18c-2.64-1.84-5.84-4.08-10.47-7.31-1.14,10.2-2.27,19.7-3.17,29.22-.1,1.07.8,2.69,1.73,3.32,6.48,4.41,13.09,8.63,20.33,13.35-.83-13.83-13.18-24.82-8.42-38.59Z"/>
  <path class="cls-1" d="M1180.91,713.67c10.58,1.1,19.87,1.26,27.39-10.53-7.12-4.72-14.35-9.51-21.58-14.3-1.07,3.25-2.14,6.51-3.2,9.76-.86,4.96-1.72,9.91-2.61,15.07Z"/>
  <path class="cls-1" d="M844.53,744.32c2.61.61,6.16-2.75,10.65-6.12-4.69.63-8.82,2.77-11.73,5.87.36.08.73.16,1.08.25Z"/>
  <path class="cls-1" d="M828.03,730.91c.13,6.97,4.21,9.87,8.96,11.5,5.58-2.33,9.68-7,10.72-12.61-3.39-1.93-6.34-3.59-9.34-5.14-5.74-2.98-10.45-.15-10.33,6.26Z"/>
  <path class="cls-1" d="M1314.43,739.35c6.56-.58,8.82-10.5,5.84-23.78-6.46,1.78-12.9,3.56-21.06,5.82,6.64,5.63,2.23,19.11,15.22,17.97Z"/>
  <path class="cls-1" d="M783.67,518.5c6.01,9.63,12.98,4.81,21.06,1.49-3.63-7.46-6.96-14.3-10.92-22.44-3.93,8.07-7.13,14.62-10.32,21.17,0,0,.06-.07.12-.13.03-.04.06-.07.07-.08Z"/>
  <path class="cls-1" d="M1331.29,757.58c-3.5-7.26-10.41-3.37-16.77-1.52,3.35,8.04,6.44,15.45,9.9,23.77,6.8-6.93,10.64-14.43,6.87-22.25Z"/>
  <path class="cls-1" d="M536.81,375.39c.75-7.01.15-14.17.15-21.26-.85-.32-1.7-.64-2.55-.97-4.47,8.76-8.95,17.53-13.42,26.29.83.6,1.66,1.21,2.49,1.81,4.66-1.5,12.31,3.81,13.34-5.88Z"/>
  <path class="cls-1" d="M955.25,799.88c6.09-13.06,11.96-26.22,17.78-39.41.96-2.17,1.32-4.6,1.95-6.91-.88-.36-1.77-.72-2.65-1.08-2.67,5.76-5.57,11.42-7.97,17.29-4.48,10.96-8.69,22.03-13,33.06,1.44-.92,3.29-1.64,3.9-2.95Z"/>
  <path class="cls-1" d="M951.35,802.83c-.14.09-.29.18-.42.28,0,0,.02.01.04.03.07.06.2.17.2.17.06-.16.12-.32.19-.48Z"/>
  <path class="cls-1" d="M1261.93,833.41c16.04,7.01,32.07,14.01,48.11,21.02-13.71-11.82-28.58-21.98-48.11-21.02Z"/>
  <path class="cls-1" d="M1362.03,502.26c-.42-4.37-.79-8.15-1.19-12.28-2,.4-3.7.21-4.44.97-3.25,3.32-6.21,6.91-9.28,10.4,2.94,2.03,5.88,4.06,8.82,6.09,1.58,1.09,3.15,2.17,4.73,3.25,2.96-2.49,5.93-4.99,10.03-8.43h-8.67Z"/>
  <path class="cls-1" d="M1360.72,510.73s-.04-.03-.06-.04c-.01,0-.02.02-.03.03,0,0,0,0,0,0,0,0,.1,0,.1,0Z"/>
  <path class="cls-1" d="M1531.99,694.11s-.35-.35-.35-.35c.09.1.16.2.24.29.03.02.07.03.1.05Z"/>
  <path class="cls-1" d="M1512.88,699.11c8.68,1.89,20.49-1.48,19.81,16.05,4.66-9.61,3.92-15.6-.79-21.1-7.51-3.9-14.65-6.27-19.02,5.05Z"/>
  <path class="cls-1" d="M853.33,832.01c.21-1.15.24-2.12.57-2.97,3.68-9.59,7.4-19.16,11.11-28.74-9.54,2.19-17.11,22.3-11.68,31.71Z"/>
  <path class="cls-1" d="M865.03,800.29s.02,0,.02,0c0,0-.01,0-.02,0Z"/>
  <path class="cls-1" d="M865.03,800.29s-.02,0-.02,0h0s0,0,0,0c0,0,.01,0,.02,0,0,0,0,0,0,0Z"/>
  <path class="cls-1" d="M613.78,423.64c-.37-6.64-.62-10.98-.94-16.76-4.32,3.34-7.49,5.79-11.62,8.99,4.3,2.66,7.71,4.76,12.57,7.76Z"/>
  <path class="cls-1" d="M950.93,803.11c-.23.63-.47,1.27-.7,1.9.31-.57.62-1.14.93-1.7,0,0-.13-.11-.19-.17-.02-.02-.04-.03-.04-.03h0Z"/>
  <path class="cls-1" d="M939.85,833.15c3.46-9.38,6.92-18.76,10.38-28.14-4.81,8.77-9.63,17.55-14.44,26.32,1.35.6,2.7,1.21,4.06,1.81Z"/>
  <path class="cls-1" d="M924.62,522.28c.04.06.08.11.12.17.03.02.07.04.1.06,0,0-.22-.22-.23-.23Z"/>
  <path class="cls-1" d="M928.92,557.58c9.44,13.53,3.66,25.57-1.34,36.79-1.54,3.45-13.9,2.11-21.31,2.9-1.31.14-2.79.38-3.93-.08-3.03-1.23-5.92-2.81-7.59-3.64-4.01,1.3-7.79,2.27-11.35,3.76-3.38,1.42-6.53,3.38-9.79,5.1,3.47,5.4,6.39,14.85,10.5,15.4,9.85,1.31,22.3,4.67,28.54-8.61.37-.79,1.39-1.5,2.27-1.8,4.73-1.63,9.5-3.12,15.54-5.07-2.87,2.91-5.46,6.06-8.57,8.57-3.57,2.88-7.59,5.2-13.32,9.04,11.56,4.49,20.51,7.96,29.48,11.44,5.58-15.61,3.43-24.96-5.35-31.59,2.2-17.69,3.87-34.43,6.53-51.02,1.11-6.88-1.16-11.11-5.92-15.44-3.37-3.07-5.76-7.22-8.56-10.9-6.2-3.63-12.39-7.27-18.59-10.9,6.8,16.66,13.27,32.41,22.77,46.03Z"/>
  <path class="cls-1" d="M849.39,603.05c-22.64,4.5-44.71,14.06-68.64,7.12-1.52-.44-4.98,2.71-6.04,4.91-.73,1.51.5,4.89,1.95,6.33,2.93,2.92,6.61,5.1,9.28,7.07-5.27,14.26-10.13,27.42-14.98,40.57.57.19,1.14.37,1.71.56,5.16-10.18,10.17-20.44,15.54-30.51,3.52-6.6,7.82-12.06,16-5.21.58.48,2.01.24,2.95-.03,10.56-3.02,20.99-6.64,31.69-9.03,12.02-2.68,24.28-4.27,37.21-6.46-2.99-6.63-5.61-12.42-8.32-18.43-6.08,1.02-12.24,1.89-18.34,3.1Z"/>
  <path class="cls-1" d="M892.25,571.71c-13.61-16.74-3.71-37.94-8.18-57.42-1.89,1.41-3.23,2.41-4.53,3.37-4.01,12.97-8.03,25.94-12.04,38.91-.45,2.15-.91,4.31-1.36,6.46,0,0,0,0,0,0-.57,5.76-1.15,11.52-1.73,17.35,9.31-2.9,18.42-5.74,27.85-8.68Z"/>
  <path class="cls-1" d="M879.18,517.93c.12-.09.24-.18.36-.26l.03-.1s-.39.37-.39.37Z"/>
  <path class="cls-1" d="M756.95,590.91c-.44.2-.89.4-1.33.6,3.28,7.71,6.56,15.43,10.43,24.54,4.01-4.25,6.3-6.68,8.27-8.77-6.38-6.02-11.88-11.2-17.37-16.37Z"/>
</svg>